<?xml version="1.0" standalone="no"?>
<!DOCTYPE svg PUBLIC "-//W3C//DTD SVG 20010904//EN"
 "http://www.w3.org/TR/2001/REC-SVG-20010904/DTD/svg10.dtd">
<svg version="1.0" xmlns="http://www.w3.org/2000/svg"
 width="205.000000pt" height="205.000000pt" viewBox="0 0 205.000000 205.000000"
 preserveAspectRatio="xMidYMid meet">
<metadata>
Created by potrace 1.11, written by Peter Selinger 2001-2013
</metadata>
<g transform="translate(0.000000,205.000000) scale(0.100000,-0.100000)"
fill="#000000" stroke="none">
<path d="M594 2031 c-135 -37 -289 -123 -393 -219 l-43 -41 42 -78 c45 -85
103 -167 157 -224 l34 -36 -53 -54 c-221 -225 -278 -559 -145 -849 79 -171
249 -321 430 -380 93 -30 103 -32 214 -35 140 -5 293 31 293 69 0 18 43 36 61
26 15 -10 52 17 44 30 -8 14 24 33 46 27 37 -10 172 140 233 260 8 17 27 71
41 119 68 236 17 489 -139 679 -43 52 -92 99 -132 126 l-24 15 23 22 23 21 54
-52 c109 -104 177 -209 220 -337 23 -68 23 -69 35 -139 8 -48 9 -215 1 -246
-2 -11 -9 -40 -15 -65 -43 -186 -156 -359 -306 -465 -145 -103 -279 -145 -450
-140 -60 2 -121 5 -134 9 -125 30 -281 113 -364 194 -125 122 -223 315 -242
473 -7 62 -7 208 1 220 3 6 3 21 0 35 -5 19 -12 24 -29 22 -17 -2 -23 -12 -29
-48 -8 -47 -4 -224 6 -275 67 -328 293 -579 602 -667 118 -33 306 -31 425 5
286 87 495 311 575 617 12 43 18 107 18 190 1 146 -7 211 -38 296 l-23 62 46
18 c115 44 223 121 275 197 50 75 69 149 62 250 -8 112 -70 300 -107 322 -18
12 -156 -45 -232 -94 -40 -26 -87 -65 -106 -86 -36 -42 -76 -121 -86 -170 -8
-42 -8 -151 0 -178 6 -19 1 -16 -31 14 -72 67 -99 89 -106 89 -5 0 -8 6 -8 14
0 28 -120 192 -176 240 -30 27 -59 59 -64 72 -12 31 -78 79 -167 121 -96 44
-211 53 -319 24z"/>
</g>
</svg>
